<?xml version="1.0" encoding="UTF-8" standalone="no"?>
<svg width="238px" height="402px" viewBox="0 0 238 402" version="1.1" xmlns="http://www.w3.org/2000/svg" xmlns:xlink="http://www.w3.org/1999/xlink">
    <!-- Generator: Sketch 39.1 (31720) - http://www.bohemiancoding.com/sketch -->
    <title>iPhone</title>
    <desc>Created with Sketch.</desc>
    <defs>
        <path d="M222.215827,431.186858 C222.215827,431.835703 221.691214,432.361239 221.043506,432.361239 L12.9564939,432.361239 C12.3087864,432.361239 11.7841727,431.835703 11.7841727,431.186858 L11.7841727,59.4954813 C11.7841727,58.8466361 12.3087864,58.3211009 12.9564939,58.3211009 L221.043506,58.3211009 C221.691214,58.3211009 222.215827,58.8466361 222.215827,59.4954813 L222.215827,431.186858 Z" id="path-1"></path>
    </defs>
    <g id="Page-1" stroke="none" stroke-width="1" fill="none" fill-rule="evenodd">
        <g id="iPhone-6" transform="translate(-69.000000, -265.000000)">
            <g id="iPhone" transform="translate(71.000000, 267.000000)">
                <g id="Body">
                    <path d="M234,453.018094 C234,472.890134 217.861682,489 197.954545,489 L36.0454545,489 C16.1383182,489 0,472.890134 0,453.018094 L0,35.9819059 C0,16.1098661 16.1383182,0 36.0454545,0 L197.954545,0 C217.861682,0 234,16.1098661 234,35.9819059 L234,453.018094 Z" id="Fill-1" fill="#EAF0F2"></path>
                    <path d="M234,453.018094 C234,472.890134 217.861682,489 197.954545,489 L36.0454545,489 C16.1383182,489 0,472.890134 0,453.018094 L0,35.9819059 C0,16.1098661 16.1383182,0 36.0454545,0 L197.954545,0 C217.861682,0 234,16.1098661 234,35.9819059 L234,453.018094 L234,453.018094 Z" id="Stroke-3" stroke="#CCD2D5" stroke-width="3.36"></path>
                    <path d="M223.338129,432.301375 C223.338129,432.954111 222.80792,433.482798 222.153304,433.482798 L11.8466965,433.482798 C11.1920801,433.482798 10.6618705,432.954111 10.6618705,432.301375 L10.6618705,58.3809644 C10.6618705,57.7282281 11.1920801,57.1995413 11.8466965,57.1995413 L222.153304,57.1995413 C222.80792,57.1995413 223.338129,57.7282281 223.338129,58.3809644 L223.338129,432.301375 Z" id="Fill-5" fill="#DEE3E6"></path>
                    <path d="M136.920863,30.2821101 C136.920863,31.5210596 136.096585,32.5252294 135.079586,32.5252294 L99.4815647,32.5252294 C98.4645661,32.5252294 97.6402878,31.5210596 97.6402878,30.2821101 C97.6402878,29.0431606 98.4645661,28.0389908 99.4815647,28.0389908 L135.079586,28.0389908 C136.096585,28.0389908 136.920863,29.0431606 136.920863,30.2821101" id="Fill-7" fill="#BAC1C4"></path>
                    <g id="Group" transform="translate(75.194245, 25.795872)">
                        <path d="M4.48920863,7.29013761 C2.94211511,7.29013761 1.68345324,6.03230849 1.68345324,4.48623853 C1.68345324,2.94016858 2.94211511,1.68233945 4.48920863,1.68233945 C6.03630216,1.68233945 7.29496403,2.94016858 7.29496403,4.48623853 C7.29496403,6.03230849 6.03630216,7.29013761 4.48920863,7.29013761" id="Fill-9" fill="#BAC1C4"></path>
                        <path d="M4.48920863,0 C2.01373073,0 0,2.01239843 0,4.48623853 C0,6.96007864 2.01373073,8.97247706 4.48920863,8.97247706 C6.96468654,8.97247706 8.97841727,6.96007864 8.97841727,4.48623853 C8.97841727,2.01239843 6.96468654,0 4.48920863,0 M4.48920863,2.56356488 C5.55186845,2.56356488 6.41315519,3.42428178 6.41315519,4.48623853 C6.41315519,5.54819528 5.55186845,6.40891219 4.48920863,6.40891219 C3.42654882,6.40891219 2.56526208,5.54819528 2.56526208,4.48623853 C2.56526208,3.42428178 3.42654882,2.56356488 4.48920863,2.56356488" id="Fill-11" fill="#D0D8DB"></path>
                    </g>
                    <path d="M120.086331,14.0194954 C120.086331,12.47112 118.829976,11.2155963 117.280576,11.2155963 C115.731175,11.2155963 114.47482,12.47112 114.47482,14.0194954 C114.47482,15.5678708 115.731175,16.8233945 117.280576,16.8233945 C118.829976,16.8233945 120.086331,15.5678708 120.086331,14.0194954" id="Fill-13" fill="#BAC1C4"></path>
                    <mask id="mask-2" fill="white">
                        <use xlink:href="#path-1"></use>
                    </mask>
                    <use id="Mask" fill="#343434" xlink:href="#path-1"></use>
                </g>
                <g id="Screen" transform="translate(11.784173, 56.321101)"></g>
            </g>
        </g>
    </g>
</svg>